<?xml version="1.0" standalone="no"?>
<!DOCTYPE svg PUBLIC "-//W3C//DTD SVG 1.1//EN" "http://www.w3.org/Graphics/SVG/1.1/DTD/svg11.dtd" >
<svg xmlns="http://www.w3.org/2000/svg">
<metadata>
Created by FontForge 20120731 at Tue Jul 25 13:38:38 2017
 By admin
</metadata>
<defs>
<font id="iconfont" horiz-adv-x="1024" >
  <font-face 
    font-family="iconfont"
    font-weight="500"
    font-stretch="normal"
    units-per-em="1024"
    panose-1="2 0 6 3 0 0 0 0 0 0"
    ascent="896"
    descent="-128"
    x-height="792"
    bbox="-6 -148 1462 896"
    underline-thickness="0"
    underline-position="0"
    unicode-range="U+0078-E8D8"
  />
<missing-glyph 
 />
    <glyph glyph-name=".notdef" 
 />
    <glyph glyph-name=".notdef" 
 />
    <glyph glyph-name=".null" horiz-adv-x="0" 
 />
    <glyph glyph-name="nonmarkingreturn" horiz-adv-x="341" 
 />
    <glyph glyph-name="x" unicode="x" horiz-adv-x="1001" 
d="M281 543q-27 -1 -53 -1h-83q-18 0 -36.5 -6t-32.5 -18.5t-23 -32t-9 -45.5v-76h912v41q0 16 -0.5 30t-0.5 18q0 13 -5 29t-17 29.5t-31.5 22.5t-49.5 9h-133v-97h-438v97zM955 310v-52q0 -23 0.5 -52t0.5 -58t-10.5 -47.5t-26 -30t-33 -16t-31.5 -4.5q-14 -1 -29.5 -0.5
t-29.5 0.5h-32l-45 128h-439l-44 -128h-29h-34q-20 0 -45 1q-25 0 -41 9.5t-25.5 23t-13.5 29.5t-4 30v167h911zM163 247q-12 0 -21 -8.5t-9 -21.5t9 -21.5t21 -8.5q13 0 22 8.5t9 21.5t-9 21.5t-22 8.5zM316 123q-8 -26 -14 -48q-5 -19 -10.5 -37t-7.5 -25t-3 -15t1 -14.5
t9.5 -10.5t21.5 -4h37h67h81h80h64h36q23 0 34 12t2 38q-5 13 -9.5 30.5t-9.5 34.5q-5 19 -11 39h-368zM336 498v228q0 11 2.5 23t10 21.5t20.5 15.5t34 6h188q31 0 51.5 -14.5t20.5 -52.5v-227h-327z" />
    <glyph glyph-name="gouwuchekong" unicode="&#xe602;" horiz-adv-x="1028" 
d="M333 105q19 0 36.5 -7t30.5 -19.5t20.5 -30t7.5 -37t-7.5 -37t-20.5 -30.5t-30.5 -20.5t-36.5 -7.5q-21 0 -38 7.5t-30 20.5t-20.5 30.5t-7.5 37t7.5 37t20.5 30t30 19.5t38 7zM758.5 103q19.5 0 37.5 -7t31 -20t20.5 -30t7.5 -36.5t-7.5 -37t-20.5 -30.5t-31 -20.5
t-37.5 -7.5t-36.5 7.5t-30 20.5t-20.5 30.5t-7.5 37t7.5 36.5t20.5 30t30 20t36.5 7zM931 685q28 0 44 -7.5t23 -19t6.5 -24t-4 -22t-13.5 -38t-22 -63t-23.5 -68t-18.5 -53.5q-14 -41 -34 -57t-49 -16h-36h-66h-86h-96h-254l14 -92h518q49 0 49 -42q0 -20 -10 -35.5
t-38 -14.5h-50h-94h-119h-119h-100h-55q-20 0 -34 9.5t-23.5 24t-15 32t-8.5 32.5q-1 7 -5.5 30.5t-11 58.5t-15 78.5t-16.5 87.5q-19 104 -44 231h-77q-15 0 -25.5 7.5t-17 18.5t-9 23t-2.5 22q0 21 14 34.5t37 12.5h103q21 0 33.5 -6.5t19.5 -15.5t10 -19t5 -17
q2 -8 4 -23l4 -30q3 -18 6 -39h701zM893 594l-641 2l36 -185l535 -1z" />
    <glyph glyph-name="iconhui" unicode="&#xe60d;" 
d="M492 356h-140v-2q0 -10 3.5 -13t14.5 -3h122v18zM492 427h-122q-12 0 -15 -4.5t-3 -12.5v-2h140v19zM679 282h-121v-14l122 5q-1 3 -1 9zM687 342q3 4 3 12v2h-132v-18h113q13 0 16 4zM690 410q0 9 -4 13t-15 4h-113v-19h132v2zM512 748q-91 0 -174 -35.5t-143 -95.5
t-95.5 -143t-35.5 -174t35.5 -174t95.5 -143t143 -95.5t174 -35.5t174 35.5t143 95.5t95.5 143t35.5 174t-35.5 174t-95.5 143t-143 95.5t-174 35.5zM238 225q0 15 6 22.5t23 8.5l225 9v17h-152q-16 0 -26.5 3t-16.5 10t-8.5 18t-2.5 27v86q0 31 12 44t42 13h152v18h-222
q-16 0 -23 8t-7 21q0 15 6.5 22.5t23.5 7.5h222v14q0 18 8.5 24t25 6t24.5 -6t8 -24v-14h212q17 0 24 -7.5t7 -22.5q0 -13 -7.5 -21t-23.5 -8h-212v-18h143q29 0 42.5 -14t13.5 -43v-86q0 -32 -14 -46q14 -13 29 -30.5t28 -33.5q13 -18 11.5 -30.5t-11.5 -20.5
q-12 -8 -24.5 -7t-27.5 21q-4 5 -8.5 11t-9.5 11l-462 -19q-12 1 -21 8.5t-9 20.5zM554.5 92.5q-10.5 5.5 -16.5 19.5q-5 13 -9 20t-13 19q-18 26 6 42q11 7 20.5 6.5t19.5 -14.5q11 -16 17 -25t11 -22q5 -15 4 -26t-15 -18v1q-14 -8 -24.5 -2.5zM350 132v-1q-6 -11 -12 -23
t-12 -22.5t-14 -21.5t-18 -22q-13 -16 -27 -18t-25.5 8.5t-10.5 24.5t14 27q16 16 28.5 34.5t18.5 34.5q8 18 19.5 24.5t26.5 -0.5q16 -8 17 -19t-5 -26zM699.5 68q-3.5 -16 -11.5 -25t-23 -13.5t-38 -6.5q-16 0 -40 -1h-48t-48 1q-23 0 -38 2q-25 2 -39.5 6t-22.5 12.5
t-10.5 21.5t-2.5 34v60q0 16 9.5 23.5t22.5 7.5q15 0 24 -7.5t9 -23.5v-59q0 -10 6 -14t26 -6q9 0 27 -1h39h39q19 0 31 1q19 0 26 5t6 21q0 19 8.5 26t22.5 7q13 0 21 -8t8 -22q0 -25 -3.5 -41zM818.5 62q-2.5 -13 -12.5 -20l1 2q-12 -10 -23.5 -9t-21.5 17
q-15 23 -26.5 40t-27.5 34h1q-14 16 -15 27t11 25q10 9 22 7.5t23 -13.5q17 -20 31 -38.5t30 -43.5q10 -15 7.5 -28z" />
    <glyph glyph-name="ordinaryarrcol" unicode="&#xe698;" 
d="M640 320v-64h-64v64h64zM576 384v-64h-64v64h64zM512 448v-64h-64v64h64zM448 512v-64h-64v64h64zM448 128v-64h-64v64h64zM576 256v-64h-64v64h64zM512 192v-64h-64v64h64z" />
    <glyph glyph-name="yonghu" unicode="&#xe62c;" 
d="M599 -146h-174h-81.5t-68.5 2.5t-62.5 8t-43.5 14.5t-32 24.5t-9 36.5v17q0 121 87 206.5t210 85.5h174q123 0 210 -85.5t87 -206.5v-17q0 -16 -5.5 -28.5t-19 -21.5t-26.5 -15.5t-38 -10.5t-43 -6t-52 -3t-53.5 -1h-59.5v0v0zM423 201q-103 0 -176.5 -72t-73.5 -174v-17
q0 -12 22 -20t66.5 -11t75.5 -3.5t86 -0.5h178q48 0 78 0.5t76.5 3.5t71 11t24.5 20v17q0 102 -73.5 174t-176.5 72h-178v0v0zM503 284q-97 0 -166 68t-69 164t69 164t166.5 68t166.5 -68t69 -164t-69 -164t-167 -68v0v0zM316 517q0 -76 55 -130t132.5 -54t132 54t54.5 130
t-54.5 129.5t-132 53.5t-132.5 -53.5t-55 -129.5v0v0zM316 499z" />
    <glyph glyph-name="1" unicode="&#xe603;" 
d="M893 29h-751q-11 0 -18.5 8t-7.5 18v563q0 10 7.5 18t18.5 8h751q11 0 18.5 -8t7.5 -18v-563q0 -10 -7.5 -18t-18.5 -8zM505 295q8 -7 19 -7t19 7l330 323h-698zM625 338q55 -42 268 -203v465q-54 -53 -268 -262zM142 68q0 -5 4 -9t10 -4h723q6 0 10 4t4 9v35l-287 217
l-63 -62q-8 -7 -19 -7t-19 7l-69 67l-294 -222v-35zM142 135q193 147 276 209l-274 267q-2 -4 -2 -6v-470z" />
    <glyph glyph-name="right-arrow-fine" unicode="&#xe65a;" 
d="M435 117l-34 31l154 140l-154 140l34 31l188 -171z" />
    <glyph glyph-name="leida" unicode="&#xe628;" horiz-adv-x="1112" 
d="M938 778l-53 -53q87 -96 117.5 -220t0 -248.5t-117.5 -221.5l55 -54q99 103 134.5 251t-0.5 295.5t-136 250.5zM814 654l-54 -54q80 -95 80 -220t-80 -220l54 -54q103 118 103 274.5t-103 273.5zM207 725l-53 53q-100 -103 -136 -250.5t-0.5 -295.5t135.5 -251l54 54
q-86 97 -116.5 221.5t0 248.5t116.5 220zM278 654q-102 -117 -102 -273.5t102 -274.5l55 54q-80 95 -80 220t80 220zM546 554q-73 0 -124.5 -51.5t-51.5 -124t51.5 -124t124.5 -51.5t124.5 51.5t51.5 124t-51.5 124t-124.5 51.5z" />
    <glyph glyph-name="arrow-left" unicode="&#xe623;" 
d="M758.5 -54.5q9.5 9.5 10 22.5t-7.5 22l-377 376q-12 12 -12 18t12 18l377 376q8 9 7.5 22t-10 22t-22.5 9.5t-22 -7.5l-418 -419q-7 -7 -8 -18v-6q1 -11 8 -18l418 -419q9 -8 22 -8t22.5 9.5z" />
    <glyph glyph-name="fangzi-copy" unicode="&#xe604;" horiz-adv-x="1000" 
d="M970 323l-469 364l-469 -364v149l469 364l469 -364v-149zM852 337v-352h-234v234h-234v-234h-235v352l352 263z" />
    <glyph glyph-name="email-copy" unicode="&#xe621;" horiz-adv-x="1471" 
d="M999 436l442 431q21 -20 21 -49v-868q0 -27 -19 -47zM32 869q20 18 45 18h1316q26 0 46 -18l-704 -554zM28 -97q-19 20 -19 47v868q0 29 21 49l442 -431zM735 178l185 180l520 -458q-20 -19 -47 -19h-1316q-27 0 -46 19l520 458z" />
    <glyph glyph-name="search" unicode="&#xe61e;" 
d="M985 -56l-274 274q52 54 80.5 124t28.5 148q0 107 -53 198t-144 144t-198.5 53t-198.5 -53t-144 -144t-53 -198t53 -198t144 -144t199 -53q128 0 232 76l277 -278q11 -10 25.5 -10t25.5 10.5t11 25.5t-11 25v0zM425 159q-88 0 -162.5 43.5t-118 118t-43.5 162t43.5 162
t118 118t162.5 43.5t162 -43.5t117.5 -118t43.5 -162t-43.5 -162t-117.5 -118t-162 -43.5v0z" />
    <glyph glyph-name="leida1" unicode="&#xe60c;" 
d="M545 11h-51v73q0 11 -8 19t-19 8t-19 -8t-8 -19v-73h-51q-11 0 -19 -8t-8 -19t8 -19t19 -8h156q11 0 19 8t8 19t-8 19t-19 8zM694.5 596q13.5 14 13.5 33.5t-13.5 33.5t-33.5 14t-33.5 -14t-13.5 -33.5t13.5 -33.5t33.5 -14t33.5 14zM845 253l-33 34l-2 2l-228 229l17 17
q8 8 8 19t-8 19t-19 8t-19 -8l-18 -17l-228 228l-2 2l-30 30q-8 8 -19 8t-19 -8t-8 -19.5t8 -19.5l13 -13q-91 -106 -91 -246q0 -76 28.5 -145t81.5 -122t122 -81.5t144 -28.5q141 0 247 92l17 -18q8 -8 19 -8t19 8t8 19.5t-8 18.5zM715 244l-286 286q-6 5 -13.5 5t-12.5 -5
t-5 -12.5t5 -12.5l279 -279q-65 -31 -139 -31q-133 0 -227.5 94.5t-94.5 228.5q0 73 31 138l81 -81q5 -5 12.5 -5t13 5t5.5 12.5t-6 12.5l-88 89q12 19 27 36l454 -454q-17 -15 -36 -27z" />
    <glyph glyph-name="arrowright" unicode="&#xe64e;" 
d="M686 393l-451 435l64 62l451 -435v0l65 -62h-1h1l-65 -62v0l-449 -433l-64 62z" />
    <glyph glyph-name="2" unicode="&#xe607;" 
d="M689.5 844.5q-75.5 30.5 -155 35.5t-153.5 -15t-139.5 -60t-117 -101t-81.5 -136t-35 -155t15 -153.5t60 -139t101 -117t136 -81.5t155 -35t153.5 15t139 59.5t117 100.5t81.5 136.5t35 155t-15 153.5t-59.5 139.5t-100.5 116.5t-136.5 81.5zM908.5 221.5
q-26.5 -65.5 -71.5 -119t-102.5 -88t-122 -52t-134 -13.5t-135.5 30.5t-119 71.5t-88 102.5t-52.5 122t-13 134t30.5 135.5t71 119t102.5 88t122 52.5t134.5 13t135.5 -30.5t119 -71.5t88 -102.5t52 -121.5t13.5 -134.5t-30.5 -135.5zM658 532q-9 9 -17 0t0 -17
q46 -43 61 -90.5t-5 -81.5q-29 -47 -106 -48.5t-156 43.5q-51 28 -85.5 67t-45.5 80q-11 42 8 73q22 35 73.5 45t114.5 -8q11 -3 14.5 8.5t-7.5 14.5q-72 21 -130.5 8t-84.5 -55q-24 -40 -11 -92q12 -46 49.5 -89t92.5 -73q81 -46 162 -46q96 0 132 60q26 42 10 96.5
t-69 104.5v0v0zM499 428q2 -1 6 -1q7 0 10 6l108 192q6 10 -4.5 16t-16.5 -5l-108 -192q-6 -10 5 -16v0v0zM613 187h-292l45 79q6 10 -4.5 16t-16.5 -5l-55 -97q-3 -6 0.5 -11.5t10.5 -5.5h312q5 0 8.5 3.5t3.5 8t-3.5 8.5t-8.5 4v0v0zM613 187z" />
    <glyph glyph-name="location" unicode="&#xe65b;" 
d="M470 -97q-14 18 -36.5 47.5t-80 113t-101.5 157t-80 157.5t-36 135q0 90 44.5 166.5t121.5 120.5t168 44t168 -44t122 -120.5t45 -166.5q0 -51 -34.5 -132.5t-84 -162t-98.5 -152.5t-83.5 -117.5l-34.5 -45.5v0zM467 654q-59 0 -101 -41.5t-42 -99.5t42 -99.5t101 -41.5
t100.5 41.5t41.5 99.5t-41.5 99.5t-100.5 41.5v0z" />
    <glyph glyph-name="homebig" unicode="&#xe6c9;" 
d="M934 403q0 -6 -12 -6v0q-7 0 -13 6l-397 327l-397 -327q-3 0 -6 -3t-7 -3q-6 0 -12 6l-32 45q-5 5 -5 13t5 13l409 339q19 14 45 14t45 -14l141 -115v115q0 19 19 19h109q19 0 19 -19v-237l128 -102q5 -5 5 -13t-5 -13zM838 134q0 -14 -12 -26t-26 -12h-218v224h-140
v-218h-224q-15 0 -27 12t-12 27v269v6l333 269l326 -269v-6v-276z" />
    <glyph glyph-name="homenavmessagesolid" unicode="&#xe8d8;" 
d="M513.5 891q-102.5 0 -195.5 -35t-160.5 -93.5t-107.5 -139.5t-40 -170q0 -106 56 -200t154 -154v-218l210 141q41 -6 84 -6q102 0 195 34.5t160.5 93t107.5 139.5t40 170t-40 170t-107.5 139.5t-160.5 93.5t-195.5 35zM257.5 393q-26.5 0 -45 18.5t-18.5 45t18.5 45.5
t45 19t45.5 -19t19 -45.5t-19 -45t-45.5 -18.5zM513.5 393q-26.5 0 -45 18.5t-18.5 45t18.5 45.5t45 19t45.5 -19t19 -45.5t-19 -45t-45.5 -18.5zM769.5 393q-26.5 0 -45 18.5t-18.5 45t18.5 45.5t45 19t45.5 -19t19 -45.5t-19 -45t-45.5 -18.5z" />
    <glyph glyph-name="unie60d" unicode="&#xe63b;" 
d="M959 490l-308 47l-139 295l-139 -295l-308 -47l223 -228l-53 -324l277 153l277 -153l-53 324zM512 156l-208 -117l40 235l-179 182l242 32l105 224l104 -224l241 -34l-177 -181l37 -235z" />
    <glyph glyph-name="wujiaoxing" unicode="&#xe63a;" 
d="M434 -1l-108 -50q-21 -14 -46 -14q-34 0 -58 24t-24 58q0 14 1 24l15 128v1q5 21 3 44q-5 50 -38 82l-1 1l-69 75q-47 28 -47 86q0 26 13.5 48t36.5 35l2 1l182 38q38 19 59 51l1 2l80 137q7 26 28 42.5t48 16.5t48 -16.5t27 -42.5l79 -136l1 -3q6 -19 21 -33t35 -17h1
l156 -30v0q10 -2 33 -7l5 -1l4 -4q5 -3 11 -10t15 -28t9 -44q0 -44 -34 -73l-81 -90v0q-31 -32 -36 -80q-2 -18 1 -36v-1l14 -136q4 -12 4 -24q0 -34 -24 -58t-58 -24q-18 0 -35 7v0l-122 58l-2 1q-17 13 -51 18q-15 3 -29 3q-43 0 -64 -19zM719 -17q11 -7 24 -7q17 0 29 12
t12 29q0 6 -2 13l-1 3l-14 138q-4 24 -2 47q6 62 47 104l83 92l1 1q20 17 20 42q0 27 -18 48l-11 3l-12 2l-4 1h-1v0v0v0l-153 30q-31 5 -55 25.5t-33 51.5l-81 137v3q-3 13 -13 21.5t-23.5 8.5t-23.5 -8.5t-12 -21.5l-1 -3l-81 -138q-14 -42 -83 -75l-2 -1l-180 -38
q-26 -15 -26 -45q0 -16 7 -29t12 -16.5t8 -5.5l4 -2l2 -3l72 -77q43 -42 50 -107q3 -29 -4 -56l-14 -126v0q-1 -7 -1 -19q0 -17 12 -29t29 -12q13 0 24 8l1 1l109 50q1 0 7.5 4t10 6t12.5 6t17 6t19.5 4t23.5 2q18 0 36 -3q42 -7 67 -25l96 -45z" />
    <glyph glyph-name="dingwei" unicode="&#xe61d;" 
d="M513 -128q-15 19 -39 50.5t-85.5 120.5t-108.5 167.5t-85.5 167.5t-38.5 144q0 96 48 177.5t130 128.5t179 47t179 -47t129.5 -128.5t47.5 -177.5q0 -55 -36.5 -142t-88.5 -172t-105.5 -163t-89 -125t-36.5 -48v0zM509 672q-63 0 -107.5 -44t-44.5 -106t44.5 -106
t107.5 -44t107.5 44t44.5 106t-44.5 106t-107.5 44v0z" />
    <glyph glyph-name="shouji" unicode="&#xe64f;" 
d="M464 -5q0 12 10 20.5t24 8.5h28q14 0 24 -8.5t10 -20.5v-4h261v870q0 14 -10 24.5t-25 10.5h-548q-15 0 -25 -10.5t-10 -24.5v-870h261v4zM432 851h192q10 0 10 -8t-10 -8h-192q-9 0 -9 8t9 8zM358 851h14q9 0 9 -8t-9 -8h-14q-9 0 -9 8t9 8zM288 112v622q0 12 9.5 21
t23.5 9h381q14 0 24 -9t10 -21v-622q0 -12 -10 -21t-24 -9h-381q-14 0 -23.5 9t-9.5 21zM560 -9v-20q0 -12 -10 -20.5t-24 -8.5h-28q-14 0 -24 8.5t-10 20.5v20h-261v-84q0 -14 10 -24.5t25 -10.5h548q15 0 25 10.5t10 24.5v84h-261z" />
    <glyph glyph-name="qiaquan" unicode="&#xe6be;" 
d="M694 -128h-364q-90 0 -166 44t-120 120t-44 166v364q0 90 44 166t120 120t166 44h364q90 0 166 -44t120 -120t44 -166v-364q0 -90 -44 -166t-120 -120t-166 -44zM330 844q-115 0 -196.5 -81.5t-81.5 -196.5v-364q0 -115 81.5 -196.5t196.5 -81.5h364q115 0 196.5 81.5
t81.5 196.5v364q0 115 -81.5 196.5t-196.5 81.5h-364v0zM114 528q0 24 7.5 34.5t34.5 10.5h111v-451h-48q-19 0 -37.5 0.5t-25.5 0.5q-23 -1 -32.5 8t-9.5 34v130q0 10 3 15t12 7q4 0 10 2.5t12 8.5t10.5 15.5t4.5 22.5q0 21 -11 32.5t-23 13.5q-9 2 -13.5 6t-4.5 14v96v0v0
zM186 613v24q0 18 13 33t29 15h119v-72h-161v0v0zM889 418q-7 -2 -10 -8t-3 -13t3 -14t10 -9.5t11 -11t4.5 -17.5t-2 -17t-7.5 -11q-18 -11 -18 -24.5t18 -27.5q3 -2 6 -9.5t3 -14.5t-3.5 -12.5t-11.5 -5.5h-47q-5 0 -5.5 1t1 3t4 5t4.5 6q5 13 0.5 22t-14.5 15
q-7 4 -10 11.5t-3 15.5t3 14.5t8 9.5q7 2 10.5 9.5t3.5 15.5t-3 15t-8 9q-7 4 -10.5 11t-3.5 16t3 17.5t11 14.5q5 3 8.5 9.5t4 13.5t-2.5 14t-11 11q-8 5 -12 13.5t-4 17.5t4 17t11 13q14 8 15.5 22t-2.5 26q-2 9 -10 16t-20 7h-414v71h486q6 0 10.5 -4.5t5.5 -10.5t-1 -13
t-8 -11q-5 -5 -9 -12t-4.5 -15t2 -15.5t9.5 -11.5q10 -5 14.5 -14.5t4.5 -19t-4.5 -17.5t-13.5 -12q-9 -3 -13.5 -10t-5 -15t3.5 -15.5t12.5 -13t12.5 -14.5t3.5 -18t-4.5 -16.5t-12 -8.5v0v0zM777 431q-10 -3 -15.5 -10.5t-6 -15.5t4 -16t14.5 -12q8 -4 12.5 -11t5 -15
t-3 -15.5t-10.5 -10.5q-22 -11 -22.5 -26.5t16.5 -24.5q8 -3 12.5 -11t5 -16.5t-3 -15t-11.5 -9.5q-10 -3 -15.5 -10t-6 -15t4 -16t15.5 -14q7 -4 10 -11.5t2 -14.5t-5 -13t-11 -6h-451v451h457q6 0 10 -6t4.5 -13.5t-3 -14.5t-11 -9.5t-12.5 -9t-6 -14t3.5 -15t14.5 -10.5
q8 -4 13 -11t5.5 -15t-3.5 -14.5t-13 -9.5v0v0zM569 371q-4 0 -9 1t-2 5q1 2 8 13t16 23t17 22.5t10 13.5q4 7 -5 17q-2 2 -7.5 5.5t-9.5 5.5q-7 3 -10 1t-7 -8q-2 -3 -9 -13q-4 -6 -14 -22q-8 -11 -15 -21q-6 -10 -7 -12q-2 -3 -6.5 -2.5t-6.5 4.5q-1 2 -8 10l-14 20
q-8 11 -16 20q-7 9 -10 13q-7 15 -16 10q-6 -3 -11 -7.5t-9 -6.5q-8 -7 -2 -17q14 -17 26 -33q7 -9 18 -24q8 -12 10 -14q2 -3 -3 -3h-11q-5 0 -12 -1q-8 0 -15 1q-7 0 -11.5 -4t-2.5 -9q1 -4 1 -11v-11q0 -4 2.5 -4.5t5.5 -0.5h50q11 0 11 -5v-17q0 -4 -2 -4h-58
q-5 1 -6.5 -2.5t-2.5 -8t-0.5 -8.5t0.5 -7q0 -12 12 -12h52q4 0 5 -1.5t1 -5.5v-16v-16q0 -10 11 -10h27q7 0 7 5v36q0 9 8 9h8q6 0 13.5 0.5t14.5 0.5h11q6 0 9 2t3 7v20q0 8 -9 8h-50q-9 -2 -9 3v7v7.5t3 5.5t6 2h51q9 0 9 6v22q0 4 -3 7.5t-8 3.5h-29v0v0z" />
    <glyph glyph-name="guanbi" unicode="&#xe601;" 
d="M28 762q-22 21 -22 52.5t22 53.5t53.5 22t52.5 -22l378 -378l378 378q22 22 53 22t53 -22t22 -53t-22 -53l-378 -378l378 -378q22 -22 22 -53t-22 -53t-53 -22t-53 22l-378 378l-378 -378q-22 -22 -53 -22t-53 22t-22 53t22 53l378 378z" />
    <glyph glyph-name="youhui" unicode="&#xe743;" 
d="M928 868h-362q-27 0 -45 -19l-470 -475q-19 -19 -19 -45.5t19 -45.5l361 -364q18 -19 44.5 -19t45.5 19l471 474q19 19 19 46v365q0 26 -18.5 45t-45.5 19zM613 252q-5 -8 -13 -16q-9 -9 -19 -16l-88 90l-41 -41l88 -90q-5 -8 -13 -16q-9 -9 -19 -16l-88 90l-73 -73
q-7 5 -13 11q-6 5 -12 11q-12 12 -22 26l73 73l-85 86q4 8 14 18q5 4 9.5 8t9.5 6l84 -86l41 41l-84 86q3 8 14 18q4 4 8.5 7.5t9.5 6.5l66 -67l66 237l14 -12q15 -13 27 -28q7 -7 11 -14l-65 -217l215 65q7 -6 13 -11q21 -18 37 -40l-235 -66zM850.5 659q-26.5 0 -45 19
t-18.5 46t18.5 45.5t45 18.5t45.5 -18.5t19 -45.5t-19 -46t-45.5 -19z" />
    <glyph glyph-name="QQ" unicode="&#xe633;" 
d="M512 896q-139 0 -257 -68.5t-186.5 -186.5t-68.5 -257t68.5 -257t186.5 -186.5t257 -68.5t257 68.5t186.5 186.5t68.5 257t-68.5 257t-186.5 186.5t-257 68.5zM739 259q-16 -44 -46 -84q2 -1 5.5 -2.5t12.5 -7t15.5 -12.5t11.5 -18.5t4 -24.5q0 -2 -1 -5.5t-6.5 -12.5
t-16.5 -15.5t-34.5 -11.5t-55.5 -4q-9 1 -23 3t-42.5 12.5t-39.5 25.5h-22q-11 -15 -37 -25.5t-47 -12.5l-21 -3q-32 -1 -55.5 4t-34.5 11.5t-17 15.5t-6.5 12.5t-0.5 5.5q-1 13 4 24.5t11.5 18.5t15.5 12.5t12.5 7t5.5 2.5v0q-13 18 -24.5 39t-16.5 33l-5 12
q-15 -24 -26.5 -36t-18 -12t-11 5.5t-6.5 15.5t-2.5 19.5t-0.5 16.5v7q6 35 24 67.5t31.5 47.5t15.5 15q-4 32 1.5 53t12.5 26l7 5q1 45 13 81.5t28.5 58.5t39 38t41 23t38.5 11t27.5 4.5t12.5 0.5t12.5 -0.5t27.5 -4.5t38.5 -11t41 -23t39 -38t28.5 -58.5t13 -81.5
q1 0 3 -1.5t7 -7.5t7.5 -14.5t5 -24t-1.5 -36.5q7 -6 16.5 -16.5t29 -44.5t25.5 -69v0v-4.5v-10.5t-1 -15t-3 -15t-4.5 -12.5t-7.5 -6t-11.5 2.5t-16.5 15t-21 30zM739 259z" />
    <glyph glyph-name="tuangou" unicode="&#xe61c;" 
d="M960 384q0 -122 -60 -225t-163 -163t-225 -60t-225 60t-163 163t-60 225t60 225t163 163t225 60t225 -60t163 -163t60 -225zM590 279v21q22 13 37 40t15 57q0 25 -0.5 37.5t-4.5 31t-12 27t-23 15t-38 6.5t-38 -6.5t-23 -15t-12 -27t-4.5 -31t-0.5 -37.5q0 -30 15 -57
t37 -40v-21q-66 -6 -111 -35t-45 -68h364q0 39 -45 68t-111 35zM411 269q34 22 81 33q-9 10 -16 23q-19 35 -19 72q0 68 12 95q18 39 65 49q-6 25 -22.5 38t-51.5 13q-23 0 -38 -6.5t-23 -15t-12 -27t-4.5 -31t-0.5 -37.5q0 -30 15 -57t37 -40v-21q-66 -6 -111 -35t-45 -68
h113q11 9 20 15v0z" />
    <glyph glyph-name="wujiaoxing1" unicode="&#xe678;" 
d="M512 764l120 -250l273 -40l-197 -197l6 -40l40 -235l-242 129l-242 -129l40 235l6 40l-197 197l272 40l19 38zM512 817q-19 0 -35 -9.5t-24 -26.5l-101 -210l-233 -34q-39 -6 -51 -43q-12 -36 15 -64l171 -170l-40 -237q-7 -38 26 -61q18 -11 38 -11q16 0 31 8l203 109
l203 -109q13 -8 31 -8q21 0 38 11q33 23 26 61l-40 237l171 170q27 28 15 64q-12 37 -51 43l-233 34l-101 210q-7 17 -23.5 26.5t-35.5 9.5z" />
    <glyph glyph-name="shangquanzhekou" unicode="&#xe6ca;" 
d="M1002 623l-253 238q-1 1 -3.5 3t-3.5 3q-3 3 -8 5q-17 10 -35 6l-337 -80q-29 -7 -45 -34l-311 -542q-10 -17 -4.5 -36t22.5 -29l450 -262q11 -7 24 -7q16 0 29 10h449q20 0 34 14t14 34v625q0 31 -22 52zM857 510l-68 230l172 -161q3 -4 3 -8v-611h-395l283 495
q13 28 5 55zM798 484l-303 -529l-427 249l303 529q4 4 6 4l326 78l97 -322q-2 -5 -2 -9zM613 602q-8 -14 -25 -14q-9 0 -14 4q-10 6 -13.5 17.5t2.5 22.5q8 14 25 14q9 0 14 -4q10 -6 13.5 -18t-2.5 -22zM629 687q-19 11 -41 11t-41 -11t-30 -30q-17 -29 -8 -61.5t38 -49.5
q19 -11 41 -11t41 10.5t30 29.5q17 30 8 62.5t-38 49.5v0z" />
    <glyph glyph-name="zhinanzhen" unicode="&#xe680;" 
d="M512 866q-99 0 -188 -38t-153.5 -102.5t-102.5 -153.5t-38 -188t38 -188t102.5 -153.5t153.5 -102.5t188 -38t188 38.5t153.5 103t102.5 153.5t38 187t-38 187t-102.5 153.5t-153.5 103t-188 38.5zM512 -40q-116 0 -213.5 56.5t-154 154t-56.5 213.5t56.5 213.5t154 154
t213.5 56.5t213.5 -56.5t154 -154t56.5 -213.5t-56.5 -213.5t-154 -154t-213.5 -56.5zM747 633l-351 -88q-36 -12 -45 -45l-88 -337q-2 -11 9 -21.5t21 -8.5l335 90q32 7 45 45l102 337q3 9 -8 19.5t-20 8.5zM717 559l-89 -263q-1 -10 -10 -18.5t-20 -12.5l-263 -72
q-21 -3 -14 14l75 265q1 10 10 18.5t20 12.5l277 72q9 2 12.5 -2t1.5 -14zM512 442q-24 0 -41 -17t-17 -41t17 -41t41 -17t41 17t17 41t-17 41t-41 17z" />
    <glyph glyph-name="leida2" unicode="&#xe60a;" 
d="M513 382zM18 382q0 -101 39 -192.5t105.5 -158t158 -105.5t192.5 -39t192.5 39t158 105.5t105.5 158t39 192.5t-39 192.5t-105.5 158t-158 105.5t-192.5 39t-192.5 -39t-158 -105.5t-105.5 -158t-39 -192.5zM759 608q-37 37 -93 36v-1q-8 0 -13.5 -5.5t-5.5 -13.5t6 -14
q4 -4 9 -5v-1h0.5h1.5q3 0 7 1q37 -1 60 -25q27 -26 24 -67v-3q0 -8 6 -14t14 -6t14 6q9 9 4 22h2q0 54 -36 90zM869 528q-5 79 -59.5 133.5t-134.5 58.5l-1 -1q-8 1 -14 -5t-6 -14t6 -14q7 -8 18 -5q62 -5 104 -47t47 -103q-2 -10 5 -18q6 -6 14 -6t14 6t6 14zM582 396
l68 69q7 -2 14 -2q22 0 37.5 16t15.5 38.5t-15.5 38t-38 15.5t-38 -15.5t-15.5 -38.5q0 -6 2 -14l-68 -69l-217 220q-8 7 -17.5 6t-13.5 -6q-78 -90 -86 -209t56 -216q-26 -10 -42.5 -33t-16.5 -52q0 -37 26 -63.5t63 -26.5q30 0 53 18t32 46q95 -58 208.5 -47t198.5 88
l-0.5 -3t0.5 1q0 1 1 4q5 17 -1 26z" />
    <glyph glyph-name="tingchejiaofei" unicode="&#xe691;" 
d="M512 384zM0 384q0 -139 68.5 -257t186.5 -186.5t257 -68.5t257 68.5t186.5 186.5t68.5 257t-68.5 257t-186.5 186.5t-257 68.5t-257 -68.5t-186.5 -186.5t-68.5 -257zM865 412q-17 46 -58 41q-3 0 -8.5 5.5t-7.5 10.5q-23 60 -44 121q-5 16 -20 30.5t-32 18.5
q-6 2 -102 22q-37 5 -74.5 5t-74.5 -5q-54 -9 -58 -9q-87 -17 -106 -88q-6 -24 -34 -96q-2 -5 -6.5 -10t-7.5 -5q-25 3 -38 -9t-22 -36q-1 -7 0 -18l37 -10q-1 -121 -2 -154q0 -66 1 -82q2 -30 13 -38q4 -5 52.5 -5t61.5 5q3 2 6 12.5t6.5 28.5t5.5 27h336q2 -5 2.5 -31.5
t15.5 -36.5q6 -4 57 -3.5t54 5.5q4 3 8 13.5t4 19.5q1 70 0 196q0 2 -5 42l40 11q1 5 1 11t-1 11zM358 279q-14 -3 -38 -3q-50 5 -54 6q-33 7 -22 52q6 27 36 17q41 -13 86 -34q6 -3 10.5 -10.5t3.5 -11.5q-5 -12 -22 -16zM291 442q40 115 49 135q5 13 25 17q47 12 71 11
q88 0 216 -6q46 -2 58 -47q2 -7 35 -110q-223 -47 -454 0zM776 283q-5 -1 -55 -7q-44 3 -47 4q-13 3 -16 14.5t8 17.5q51 24 105 40q10 3 17 -4t7 -19q4 -13 0.5 -27.5t-19.5 -18.5z" />
    <glyph glyph-name="email-oc" unicode="&#xe62b;" 
d="M0 384q0 -139 68.5 -257t186.5 -186.5t257 -68.5t257 68.5t186.5 186.5t68.5 257t-68.5 257t-186.5 186.5t-257 68.5t-257 -68.5t-186.5 -186.5t-68.5 -257zM512 335l246 186v-309v-1q0 -10 -6.5 -16.5t-15.5 -7.5h-448q-9 1 -15.5 7.5t-6.5 16.5v1v305zM266 556v1
q0 10 6.5 16.5t15.5 7.5h448q9 -1 15.5 -7.5t6.5 -16.5v-1l-246 -184z" />
    <glyph glyph-name="chaxun" unicode="&#xe60b;" 
d="M1000 16l-249 249q66 101 66 223q0 111 -55 205t-149 148.5t-204.5 54.5t-205 -54.5t-149 -149t-54.5 -205t54.5 -204.5t148.5 -149t205 -55q123 0 225 68l248 -249q25 -24 59.5 -24t58.5 24q25 24 25 58.5t-24 59.5zM138 488q0 113 79.5 192.5t192.5 79.5t193 -79.5
t80 -192.5t-80 -193t-193 -80t-192.5 80t-79.5 193z" />
    <glyph glyph-name="inputAccessory-you-normal" unicode="&#xe79c;" 
d="M424 688l303 -303l-303 -305l-42 42l261 263l-261 261z" />
    <glyph glyph-name="dianhua" unicode="&#xe605;" 
d="M699 197q-70 68 -125 68q-25 0 -44 -13l-30 -23q-36 8 -71.5 38t-61.5 75.5t-34.5 91t2.5 80.5l35 15q33 15 43.5 56.5t-3.5 104.5q-6 29 -17.5 60t-29.5 62.5t-44 52t-55 20.5q-12 0 -24 -3l-59 -19q-37 -13 -63.5 -42.5t-34.5 -68.5q-24 -113 4.5 -247t103.5 -264.5
t177 -222t212 -127.5q23 -7 46 -7q57 0 99 38l46 41q43 39 15 111q-23 62 -87 123zM737 0l-46 -41q-27 -26 -65 -26v0q-16 0 -30 5q-102 34 -196.5 119.5t-165.5 208t-98 247t-5 229.5q6 26 23.5 45.5t42.5 27.5l58 19q5 2 9 2q28 0 56.5 -48.5t41.5 -107.5q9 -42 5.5 -70.5
t-17.5 -34.5l-53 -24l-1 -3q-22 -46 -14.5 -108t42.5 -122.5t85 -98t101 -41.5l3 -1l47 34q5 4 14 4q34 0 90 -53t76 -105q15 -41 -3 -57v0zM906 624q-41 81 -109 139t-154 86q-4 1 -7 1q-19 0 -24 -17q-3 -10 1.5 -19t14.5 -12q77 -25 137.5 -77t97 -124t42.5 -151.5
t-19 -155.5q-3 -10 1.5 -19t14.5 -13q3 -1 7 -1q19 0 24 17q28 87 21 176t-48 170zM597 706q-4 2 -8 2q-18 0 -24 -18q-3 -9 1.5 -18.5t14.5 -12.5q100 -32 147 -125.5t15 -193.5q-3 -9 1.5 -18.5t14.5 -12.5q4 -1 8 -1q18 0 23 17q39 119 -18 231q-27 54 -72.5 92.5
t-102.5 57.5zM535 516q40 -13 59 -51t6 -78q-3 -10 1.5 -19t14.5 -12q4 -2 8 -2q18 0 23 18q20 59 -8.5 115.5t-88.5 75.5q-4 2 -8 2q-18 0 -23 -17q-4 -10 1 -19.5t15 -12.5z" />
    <glyph glyph-name="pinpai" unicode="&#xe60e;" 
d="M209 26h620v-70h-620v70zM1024 477q0 45 -31 76t-76 31t-76 -31t-31 -76v-14l-103 -60l-125 218q37 30 37 80q0 45 -31 76t-76 31t-76 -31t-31 -76q0 -56 42 -84l-121 -214l-121 65q4 9 4 28q0 45 -30.5 76t-76.5 31q-42 0 -72 -31t-30 -76q0 -42 28 -73t70 -34l93 -294
q3 -10 12.5 -16.5t19.5 -6.5h582q11 0 20 6.5t13 16.5l79 270q46 7 76.5 39t30.5 73zM516.5 742q14.5 0 26 -10t11.5 -27t-10 -27t-27 -10q-15 0 -26.5 10t-11.5 27t11.5 27t26 10zM70 496q0 15 10 26t27 11q14 0 23.5 -10t9.5 -27q0 -33 -33 -33q-14 0 -25.5 9.5
t-11.5 23.5zM782 147h-531l-83 265l153 -84q14 -7 27 -3.5t20 17.5l149 261l149 -261q4 -9 23 -19q9 -4 28 5l130 75l9 -10zM917 445q-14 0 -23.5 9t-9.5 23q0 15 10.5 26t27.5 11q14 0 25.5 -10t11.5 -27q0 -16 -13 -24t-29 -8z" />
    <glyph glyph-name="JD" unicode="&#xe769;" 
d="M694 -128h-364q-90 0 -166 44t-120 120t-44 166v364q0 90 44 166t120 120t166 44h364q90 0 166 -44t120 -120t44 -166v-364q0 -90 -44 -166t-120 -120t-166 -44zM330 844q-115 0 -196.5 -81.5t-81.5 -196.5v-364q0 -115 81.5 -196.5t196.5 -81.5h364q115 0 196.5 81.5
t81.5 196.5v364q0 115 -81.5 196.5t-196.5 81.5h-364zM626 154h-163v500h163q102 0 173.5 -73.5t71.5 -177t-71.5 -176.5t-173.5 -73zM626 595h-98v-382h98q75 0 127.5 56t52.5 135t-52.5 135t-127.5 56zM185 154h-32v59h32q55 0 93 34t38 83v324h65v-324q0 -73 -57 -124.5
t-139 -51.5z" />
    <glyph glyph-name="activity_fill" unicode="&#xe6de;" 
d="M800 752h-128v16q0 13 -9.5 22.5t-22.5 9.5t-22.5 -9.5t-9.5 -22.5v-16h-192v16q0 13 -9.5 22.5t-22.5 9.5t-22.5 -9.5t-9.5 -22.5v-16h-128q-27 0 -45.5 -19.5t-18.5 -47.5v-93h704v93q0 28 -19 47.5t-45 19.5zM640 400q13 0 22.5 -9.5t9.5 -22.5t-9.5 -22.5t-22.5 -9.5
h-256q-13 0 -22.5 9.5t-9.5 22.5t9.5 22.5t22.5 9.5h256zM352 208q0 13 9.5 22.5t22.5 9.5h256q13 0 22.5 -9.5t9.5 -22.5t-9.5 -22.5t-22.5 -9.5h-256q-13 0 -22.5 9.5t-9.5 22.5zM832 528h-672v-477q0 -28 18.5 -47.5t45.5 -19.5h576q27 0 45.5 19.5t18.5 47.5v477h-32z
" />
    <glyph glyph-name="qq" unicode="&#xe643;" 
d="M512 -64q-91 0 -174 35.5t-143 95.5t-95.5 143t-35.5 174t35.5 174t95.5 143t143 95.5t174 35.5t174 -35.5t143 -95.5t95.5 -143t35.5 -174t-35.5 -174t-95.5 -143t-143 -95.5t-174 -35.5zM512 817q-118 0 -217.5 -58t-157.5 -157.5t-58 -217.5t58 -217.5t157.5 -157.5
t217.5 -58t217.5 58t157.5 157.5t58 217.5t-58 217.5t-157.5 157.5t-217.5 58zM680 318q-4 -14 -6 -19.5t-7.5 -15t-15.5 -20.5l5.5 -3t13.5 -9.5t10 -14.5q4 -10 4.5 -15t-2.5 -14.5t-19.5 -15t-45.5 -8.5q-13 -1 -26.5 1t-23.5 6t-18 8t-13 7l-5 3h-22l-2.5 -2.5t-9 -6.5
t-15.5 -7.5t-25.5 -6t-37.5 -2.5q-38 0 -53 18t-5 35q4 8 11.5 14t12 9t3.5 4q-15 18 -27 45q-4 6 -4 11q0 2 -3 -3q-16 -29 -23 -31q-4 -1 -8 2q-24 17 -4 71q4 12 14 27t17 24.5t7 11.5q1 10 0.5 18t-1 9.5t0.5 5.5q3 7 8 9.5t5 5.5q0 67 44.5 114.5t108.5 47.5
q63 0 108 -47.5t45 -114.5q0 -1 2.5 -1.5t6 -4t5.5 -9.5q2 -5 0 -33q0 -2 6 -8.5t15 -21t14 -33.5q7 -22 5.5 -37.5t-4.5 -23t-7 -10.5q-11 -9 -30 21q-7 9 -9 10z" />
    <glyph glyph-name="leida3" unicode="&#xe606;" 
d="M1024 384q0 139 -68.5 257t-186.5 186.5t-257 68.5q-211 0 -361 -151q-5 -5 -5 -12t5 -12l96 -96l253 -253q5 -5 12 -5t12 5t5 12t-5 12l-47 47q16 9 35 9q28 0 48 -20t20 -48t-20 -48t-48 -20t-48 20t-20 48q0 7 -5 12t-12 5t-12 -5t-5 -12q0 -42 30 -72t72.5 -30
t72.5 30t30 72.5t-30 72.5t-73 30q-34 0 -60 -19l-72 72q57 49 132 49q85 0 145 -60t60 -145q0 -67 -39 -120.5t-103 -74.5q-8 19 -25 30.5t-37.5 11.5t-37.5 -11.5t-25 -30.5q-64 20 -103.5 74t-39.5 121q0 47 21 89q3 7 1 13.5t-8.5 9.5t-13.5 1t-10 -9q-24 -50 -24 -104
q0 -80 47.5 -143.5t124.5 -85.5q2 -26 21.5 -43.5t45.5 -17.5t45.5 17.5t22.5 43.5q76 22 123.5 85.5t47.5 143.5q0 99 -70 169t-169 70q-89 0 -156 -59l-72 73q97 88 228 88q106 0 193 -60q-5 -12 -5 -25q0 -28 20 -48t48 -20q13 0 26 5q60 -88 60 -193q0 -93 -46 -171.5
t-124.5 -124t-171 -45.5t-171.5 45.5t-124.5 124t-45.5 171.5q0 102 56 188q4 5 2.5 12t-7.5 11t-13 2.5t-11 -7.5q-62 -93 -62 -206q0 -102 50.5 -188.5t137 -136.5t188.5 -50t188.5 50t136.5 136.5t50 188.5q0 117 -66 213q15 19 15 43q0 28 -20 48t-48 20q-24 0 -43 -15
q-96 66 -213 66q-145 0 -253 -98l-72 72q136 129 325 129q97 0 185.5 -38t152.5 -102t102 -152.5t38 -185.5q0 -159 -96 -287q-19 14 -41 14q-28 0 -48 -20t-20 -48q0 -22 14 -41q-128 -96 -287 -96q-97 0 -185.5 38t-152.5 102t-102 152.5t-38 185.5q0 138 74 254
q3 6 1.5 13t-7.5 11t-13 2.5t-10 -7.5q-79 -125 -79 -273q0 -139 68.5 -257t186.5 -186.5t257 -68.5q175 0 314 108q14 -6 27 -6q28 0 48 20t20 49q0 14 -5 27q108 139 108 314zM512 128q-14 0 -24 10t-10 24t10 24t24 10t24 -10t10 -24t-10 -24t-24 -10zM768 674
q14 0 24 -10t10 -24t-10 -24q-3 -1 -4 -2t-3 -4q-8 -4 -17 -4q-14 0 -24 10t-10 24t10 24t24 10zM853 9q-7 0 -14 3v0q-2 3 -8 5q-12 10 -12 26q0 14 10 24t24.5 10t24.5 -10t10 -24t-10 -24t-25 -10zM512 162zM469 162q0 -18 12.5 -30.5t30.5 -12.5t30.5 12.5t12.5 30.5
t-12.5 31t-30.5 13t-30.5 -13t-12.5 -31zM512 384zM440 384q0 -30 21 -51t51 -21t51 21t21 51t-21 51t-51 21t-51 -21t-21 -51zM768 640zM725 640q0 -18 12.5 -30.5t30.5 -12.5t30.5 12.5t12.5 30.5t-12.5 31t-30.5 13t-30.5 -13t-12.5 -31zM855 42zM812 42
q0 -18 12.5 -30.5t30.5 -12.5t30.5 12.5t12.5 30.5t-12.5 31t-30.5 13t-30.5 -13t-12.5 -31z" />
    <glyph glyph-name="xiala" unicode="&#xe6c8;" 
d="M773 535q0 -11 -7 -19l-253 -303q-10 -12 -25.5 -12t-25.5 12l-251 302q-8 10 -6.5 22.5t12 21t23.5 7t22 -11.5l226 -272l227 273q9 10 22 11.5t24 -6.5q12 -10 12 -25z" />
    <glyph glyph-name="shijian-copy" unicode="&#xe600;" 
d="M577.5 511.5q23.5 23.5 23.5 57t-23.5 57t-57 23.5t-57 -23.5t-23.5 -57t23.5 -57t57 -23.5t57 23.5zM515 26v0q25 0 40 19q42 56 82.5 114t90.5 138t81 153.5t31 121.5q0 87 -43.5 160.5t-118.5 116t-163 42.5t-163 -42.5t-118.5 -116t-43.5 -160.5q0 -48 31 -121.5
t81 -153.5t90.5 -138t82.5 -114q15 -19 40 -19zM515 833q110 0 187.5 -76.5t77.5 -184.5q0 -58 -64.5 -178.5t-178.5 -273.5q-8 -11 -22 -11t-22 11q-114 153 -178.5 273.5t-64.5 178.5q0 108 77.5 184.5t187.5 76.5zM917 77q-24 24 -62 37t-83 13h-4h-4q-11 -1 -18 -8.5
t-8 -18.5q0 -11 8 -19.5t19 -9.5l33 -1h2q51 -7 78 -33q11 -11 11 -20q0 -6 -7.5 -13.5t-30.5 -18.5t-58 -20q-109 -28 -280 -28t-282 28q-35 9 -58.5 20t-31 19t-7.5 14q0 19 15 29q22 14 72 19h5l32 1q12 1 19.5 9.5t7.5 20.5q-1 11 -9.5 18.5t-20.5 7.5h-4
q-91 -2 -133 -30q-40 -26 -40 -75q0 -40 44 -69q35 -23 96 -38q117 -30 295 -30t294 30q60 15 94 37q44 29 44 69q0 32 -28 60z" />
    <glyph glyph-name="woshou" unicode="&#xe6ee;" 
d="M199 231q5 2 5 7q0 2 -1 3q-35 68 -45 133q-1 7 -8 7h-1q-7 -1 -7 -8v-1q11 -69 46 -138q3 -4 8 -4q1 0 3 1zM297 169q14 14 14 34v0v0q0 20 -14 34t-34 14t-34 -14l-23 -22q-14 -14 -14 -34t14 -34t34 -14v0v0v0q20 0 34 14zM240 149v0v0q-13 0 -22.5 9t-9.5 22.5
t10 22.5l22 23q10 9 23 9v0q13 0 22.5 -9.5t9.5 -22.5t-9 -22l-23 -23q-9 -9 -23 -9v0zM608 401v0q-3 2 -6 2t-6 -2v0q-2 -2 -2 -5.5t2 -5.5l210 -209q9 -10 9 -23t-9.5 -22.5t-22.5 -9.5t-23 9l-62 63v0q-2 2 -5.5 2t-5.5 -2v0q-2 -3 -2 -6t2 -6l62 -62q14 -14 34 -14v0v0
q20 0 34 14t14 34t-14 34zM387 102q14 13 14 33v0v1q0 19 -14 33q-13 14 -33.5 14t-34.5 -14l-34 -34q-14 -14 -14 -33v-1v0q0 -19 14 -33t34 -14v0h1q19 0 33 14zM297 79q-10 9 -10 22v0v1q0 13 10 22l34 34q9 9 22 9v0v0q14 0 23 -9t9 -22v-1v0q0 -13 -9 -22l-34 -34
q-9 -9 -22.5 -9t-22.5 9zM376 361.5q14 -14.5 34 -14.5v0v0q20 0 34 15q9 8 20 17.5t27 20t30.5 16.5t29 6t23.5 -10v0q2 -2 5 -2q8 0 8 8q0 3 -2 6q-14 14 -35 13.5t-39 -8.5t-38 -22.5t-27.5 -21.5t-13.5 -12q-9 -10 -22 -10t-22.5 9.5t-9.5 23t9 22.5l74 74q18 18 48 34
t57 25t56.5 16.5t42 9.5t17.5 3q7 1 7 8v1q-1 8 -9 6.5t-20.5 -3.5t-43.5 -9.5t-58 -17.5t-58 -26.5t-51 -35.5l-73 -74q-14 -14 -14 -33.5t14 -34zM335 569q-1 -2 -1 -4q0 -5 4 -7q38 -20 94 -43q1 -1 3 -1q5 0 7 5q1 2 1 3q0 6 -5 8q-61 25 -92 42q-2 1 -4 1q-5 0 -7 -4z
M579 -45q-2 2 -5.5 2t-5.5 -2v-1q-2 -2 -2 -5t2 -6q10 -9 10 -22.5t-9.5 -22.5t-23 -9t-22.5 9q-2 2 -5.5 2t-5.5 -2v0q-3 -2 -3 -5.5t3 -5.5q14 -14 33 -14h1v0q19 0 33 14t14 33.5t-14 34.5v0zM596 96q-2 2 -5 2q-8 0 -8 -8q0 -3 2 -5l62 -63q10 -9 10 -22.5t-10 -22.5
q-9 -9 -22.5 -9t-22.5 9v0q-2 2 -5.5 2t-5.5 -2v0q-3 -2 -3 -5.5t3 -5.5q14 -14 34 -14v0v0q20 0 34 14t14 34t-14 34zM546 -57q14 14 14 34t-14 34t-34.5 14t-33.5 -14l-34 -34q-14 -14 -14 -34t14 -34t34 -14v0v0v0q20 0 34 14zM478 -89v0v0q-14 0 -23 9.5t-9 22.5t9 23
l34 34q9 9 23 9v0v0q13 0 22.5 -9.5t9.5 -22.5t-10 -22l-34 -34q-9 -10 -22 -10v0zM478 34q14 14 14 33.5t-14 34.5q-14 13 -34.5 13t-33.5 -13l-45 -46q-14 -14 -14 -34t14 -34t33 -14h1v0q19 0 33 14zM399 -10h-1q-13 0 -22 9.5t-9 23t9 22.5l45 45q9 10 23 10v0v0
q13 0 22.5 -9.5t9.5 -23t-10 -22.5l-45 -45q-9 -10 -22 -10v0zM676 175q-3 2 -6 2q-8 0 -8 -8q0 -3 2 -5l62 -62q10 -10 10 -23t-9.5 -22.5t-22.5 -9.5t-23 9l-62 62q-2 3 -6 3q-8 0 -8 -8q0 -4 3 -6l62 -62q14 -14 34 -14t34 14t14 34t-14 34zM874 403h-1q-7 0 -8 -7
q-1 -11 -3.5 -29t-17 -61.5t-36.5 -73.5q-1 -2 -1 -4q0 -8 8 -8q4 0 6 3q23 32 38 76.5t18 63.5t4 32v0q0 8 -7 8zM936 446l-29 -28l-203 204l28 28q2 2 2 5.5t-2 5.5t-5.5 2t-5.5 -2l-34 -34q-1 0 -1 -1l-1 -1v0v0v-2v0v-1v-1v-1v-1v0v-0.5t1 -0.5v-0.5v-0.5q0 -1 1 -1
l215 -215q2 -2 5.5 -2t5.5 2l34 34q2 2 2 5q0 8 -8 8q-3 0 -5 -2zM278.5 661.5q-2.5 2.5 -5.5 2.5t-6 -2l-214 -216q-2 -2 -2 -5q0 -8 8 -8q3 0 5 2l215 215q2 3 2 6t-2.5 5.5zM973 470l-212 217q-3 2 -6 2q-8 0 -8 -8q0 -3 2 -5l212 -217q6 -6 11.5 -0.5t0.5 11.5zM336 593
v0q3 3 3 6t-3 6l-34 34v0q-2 2 -5 2t-6 -2v0q-2 -3 -2 -6t2 -6l28 -28l-203 -204l-28 29q-3 2 -6 2q-8 0 -8 -8q0 -3 2 -6l34 -33l1 -1l1 -1h1v0v0l1 -1h2q3 0 6 3l214 214v0z" />
    <glyph glyph-name="dianhua1" unicode="&#xe608;" 
d="M758 -51v0q-12 0 -24 3q-242 58 -419 235t-235 419q-6 27 2 55t28 49l87 86q9 9 25 16t29.5 7t29.5 -7t26 -16l146 -146q9 -10 15.5 -26t6.5 -29t-6.5 -29t-15.5 -26l-72 -72q-9 -9 -2 -20q32 -50 89.5 -107.5t107.5 -89.5q11 -7 20 2l72 72q10 9 26 15.5t29 6.5
t29.5 -6.5t25.5 -15.5l146 -146q9 -10 16 -26t7 -29.5t-7 -29.5t-16 -25l-86 -87q-14 -13 -37 -23t-43 -10zM252 749q-3 0 -6 -3l-86 -86q-17 -17 -12 -38q53 -222 216 -385.5t386 -216.5q21 -5 38 12l86 86q3 3 3 6t-3 5l-146 146q-2 2 -5 2t-5 -2l-72 -72
q-22 -21 -52.5 -24t-56.5 13q-54 36 -117.5 99.5t-99.5 118.5q-16 25 -13 55.5t24 52.5l72 72q2 2 2 5t-2 5l-146 146q-2 3 -5 3z" />
    <glyph glyph-name="wifi" unicode="&#xe615;" 
d="M957 528q-76 67 -155 110t-148 59t-137 16.5t-124.5 -13.5t-108.5 -34.5t-90 -44.5t-67.5 -46t-43.5 -35t-16 -15q-9 -10 -8.5 -23t8.5 -22q10 -10 22.5 -10t22.5 10q8 8 18 17t40.5 32.5t62 42t80 39t97 30.5t110.5 10t123 -16.5t131.5 -55t139.5 -99.5q9 -9 22.5 -8
t21.5 11q10 10 9.5 23t-10.5 22zM194 382q-9 -9 -8.5 -22.5t9.5 -21.5q11 -8 21 -8q15 0 24 11q6 6 18 17.5t42.5 33.5t65 38.5t84.5 26t101 4t114 -34.5t124 -84q9 -8 22.5 -7.5t22.5 11.5q8 9 7.5 22.5t-11.5 21.5q-55 49 -112.5 80t-105.5 43.5t-99 10.5t-88 -9.5
t-78 -27t-63 -33t-48.5 -35.5t-30 -25t-11.5 -12zM502 333q-30 -2 -60 -12t-51 -22.5t-38.5 -27t-25.5 -23t-10 -11.5q-9 -11 -7.5 -24t12.5 -21q9 -9 22.5 -7.5t21.5 12.5l7.5 7.5t19 17t29.5 21.5t38 17t46 9q74 2 150 -74q10 -9 22.5 -9t22 9.5t10 22.5t-8.5 22
q-95 98 -200 93zM448 97.5q0 -26.5 19 -45t45 -18.5t45 18.5t19 45t-19 45.5t-45 19t-45 -19t-19 -45.5z" />
    <glyph glyph-name="dianhua2-copy" unicode="&#xe609;" 
d="M601 851q-3 1 -7 1q-16 1 -28.5 -9t-15.5 -26q-4 -17 6 -32t28 -19q68 -14 125.5 -53t96.5 -97q80 -122 51 -263q-4 -18 6 -33t27 -19q4 0 8 -1q13 0 25 7q15 10 19 28q24 116 -13.5 226.5t-124.5 188t-203 101.5zM676 199q68 -47 104 -84q45 -46 44 -79q-1 -34 -39 -69
q-9 -9 -23 -19.5t-53 -25.5t-80 -15q-38 0 -77 11q-41 13 -82 38q-81 48 -145.5 111.5t-123.5 153.5q-47 71 -78.5 144t-43 130t-15 88t-2.5 52q0 43 14 81t31.5 61t41 42t35 25.5t21.5 10.5q29 14 53 14q12 0 22 -3q31 -10 47 -44q28 -61 47 -152q2 -12 2 -23t-2 -18.5
t-6.5 -15t-9 -12t-12.5 -9.5t-12.5 -7.5t-14.5 -7.5l-1 -1q-58 -24 -68 -28q-7 -3 -10.5 -10.5t-1.5 -14.5q36 -108 103 -212q66 -101 149 -177q6 -6 14 -6h2q9 1 15 8q18 24 36 41q40 38 75 38q9 0 18 -3q9 -2 26 -13zM493 495q-18 4 -27.5 19t-6.5 32q4 16 16.5 26t28.5 9
q3 0 7 -1q76 -15 118.5 -80t26.5 -140q-3 -18 -18 -28q-12 -7 -26 -7q-5 0 -7 1q-18 4 -28 19t-6 32q8 41 -14.5 75.5t-63.5 42.5zM538 631q-17 4 -27 19t-6 32q3 16 15.5 26t28.5 9q5 0 7 -1q127 -26 198.5 -134t45.5 -235q-4 -18 -19 -27q-12 -8 -26 -7h-7q-17 4 -27 19
t-7 33q19 91 -32 169q-52 78 -144 97z" />
    <glyph glyph-name="pinpai-" unicode="&#xe60f;" 
d="M694 641.5q0 -31.5 22 -53.5t53.5 -22t53.5 22t22 53.5t-22 53.5t-53.5 22t-53.5 -22t-22 -53.5zM66 302q0 31 22 54l421 420q22 23 59.5 38.5t69.5 15.5h245q30 0 52.5 -22.5t22.5 -52.5v-245q0 -32 -15.5 -69.5t-38.5 -59.5l-421 -421q-21 -22 -53 -22q-30 0 -53 22
l-289 290q-22 21 -22 52z" />
    <glyph glyph-name="arrow-left-copy" unicode="&#xe79d;" 
d="M792 404zM673.5 -54.5q9.5 9.5 10 22.5t-8.5 22l-376 376q-12 12 -12 18t12 18l376 376q9 9 8.5 22t-10 22t-22.5 9.5t-22 -7.5l-418 -419q-8 -7 -8 -18v-6q0 -11 8 -18l418 -419q9 -8 22 -8t22.5 9.5z" />
    <glyph glyph-name="arrowright-copy" unicode="&#xe79e;" 
d="M643 393l-451 435l65 62l450 -435h1l64 -62v0v0l-65 -62v0l-449 -433l-64 62z" />
  </font>
</defs>
</svg>
